<?xml version="1.0" encoding="UTF-8"?>
<svg xmlns="http://www.w3.org/2000/svg" version="1.1" width="225" height="225" viewBox="0 0 225 225"><rect x="0" y="0" width="225" height="225" fill="#ffffff"/><g transform="scale(6.818)"><g transform="translate(0,0)"><path fill-rule="evenodd" d="M8 0L8 1L10 1L10 0ZM14 0L14 2L11 2L11 4L10 4L10 3L9 3L9 2L8 2L8 5L9 5L9 6L8 6L8 7L9 7L9 8L8 8L8 10L10 10L10 9L9 9L9 8L10 8L10 7L11 7L11 8L12 8L12 9L11 9L11 11L12 11L12 12L13 12L13 13L12 13L12 14L13 14L13 15L12 15L12 16L10 16L10 17L9 17L9 16L8 16L8 17L7 17L7 16L6 16L6 15L9 15L9 14L6 14L6 13L7 13L7 12L8 12L8 11L7 11L7 10L6 10L6 9L7 9L7 8L6 8L6 9L5 9L5 10L2 10L2 9L4 9L4 8L0 8L0 9L1 9L1 11L0 11L0 13L3 13L3 12L5 12L5 14L6 14L6 15L5 15L5 17L4 17L4 15L3 15L3 14L0 14L0 15L3 15L3 16L0 16L0 17L1 17L1 18L0 18L0 22L1 22L1 20L2 20L2 21L4 21L4 22L6 22L6 23L3 23L3 22L2 22L2 23L1 23L1 24L0 24L0 25L1 25L1 24L2 24L2 23L3 23L3 25L7 25L7 24L8 24L8 26L9 26L9 28L10 28L10 29L11 29L11 30L9 30L9 29L8 29L8 33L9 33L9 32L10 32L10 33L11 33L11 32L12 32L12 33L15 33L15 31L16 31L16 32L18 32L18 33L20 33L20 32L21 32L21 31L19 31L19 30L18 30L18 31L16 31L16 29L20 29L20 30L21 30L21 28L22 28L22 32L25 32L25 33L26 33L26 32L27 32L27 33L28 33L28 32L29 32L29 31L30 31L30 30L29 30L29 31L27 31L27 30L26 30L26 29L31 29L31 31L32 31L32 32L33 32L33 31L32 31L32 29L31 29L31 27L32 27L32 28L33 28L33 27L32 27L32 26L31 26L31 25L33 25L33 21L32 21L32 18L33 18L33 15L30 15L30 14L31 14L31 13L30 13L30 14L26 14L26 12L27 12L27 13L29 13L29 11L33 11L33 8L32 8L32 10L30 10L30 9L31 9L31 8L28 8L28 9L26 9L26 8L24 8L24 7L25 7L25 6L24 6L24 7L23 7L23 5L25 5L25 4L23 4L23 3L21 3L21 1L20 1L20 0L19 0L19 1L17 1L17 2L15 2L15 0ZM23 0L23 2L24 2L24 0ZM19 1L19 3L18 3L18 2L17 2L17 5L15 5L15 9L14 9L14 10L13 10L13 9L12 9L12 10L13 10L13 11L16 11L16 12L17 12L17 13L16 13L16 14L15 14L15 15L13 15L13 16L14 16L14 18L13 18L13 17L12 17L12 18L11 18L11 17L10 17L10 19L11 19L11 20L13 20L13 21L10 21L10 20L9 20L9 19L8 19L8 18L9 18L9 17L8 17L8 18L7 18L7 17L6 17L6 18L7 18L7 19L6 19L6 20L9 20L9 21L8 21L8 22L7 22L7 21L6 21L6 22L7 22L7 23L6 23L6 24L7 24L7 23L8 23L8 24L10 24L10 23L11 23L11 25L9 25L9 26L11 26L11 27L10 27L10 28L11 28L11 27L12 27L12 29L13 29L13 28L14 28L14 31L13 31L13 32L14 32L14 31L15 31L15 29L16 29L16 28L19 28L19 27L16 27L16 26L17 26L17 25L16 25L16 20L17 20L17 19L18 19L18 20L19 20L19 19L20 19L20 21L22 21L22 22L23 22L23 21L24 21L24 23L23 23L23 25L22 25L22 28L23 28L23 26L24 26L24 23L25 23L25 24L27 24L27 23L29 23L29 24L30 24L30 25L29 25L29 26L30 26L30 25L31 25L31 24L32 24L32 23L31 23L31 22L29 22L29 21L30 21L30 20L31 20L31 19L29 19L29 18L28 18L28 17L27 17L27 18L26 18L26 19L25 19L25 20L24 20L24 17L23 17L23 20L22 20L22 17L21 17L21 18L19 18L19 19L18 19L18 17L20 17L20 16L19 16L19 15L18 15L18 14L19 14L19 12L20 12L20 15L21 15L21 12L23 12L23 13L22 13L22 14L23 14L23 16L24 16L24 14L23 14L23 13L25 13L25 12L23 12L23 10L22 10L22 9L23 9L23 7L22 7L22 6L21 6L21 7L20 7L20 6L19 6L19 5L18 5L18 4L19 4L19 3L20 3L20 4L21 4L21 3L20 3L20 1ZM14 2L14 3L15 3L15 4L16 4L16 3L15 3L15 2ZM12 4L12 5L10 5L10 6L9 6L9 7L10 7L10 6L11 6L11 7L12 7L12 8L14 8L14 4ZM22 4L22 5L23 5L23 4ZM12 5L12 7L13 7L13 5ZM17 5L17 6L16 6L16 8L17 8L17 9L16 9L16 11L18 11L18 12L19 12L19 10L17 10L17 9L20 9L20 11L21 11L21 9L20 9L20 7L19 7L19 6L18 6L18 5ZM17 6L17 7L18 7L18 8L19 8L19 7L18 7L18 6ZM24 9L24 10L25 10L25 11L26 11L26 10L25 10L25 9ZM28 9L28 10L27 10L27 11L29 11L29 9ZM5 10L5 11L6 11L6 12L7 12L7 11L6 11L6 10ZM1 11L1 12L3 12L3 11ZM9 12L9 13L10 13L10 15L11 15L11 13L10 13L10 12ZM17 13L17 14L16 14L16 15L17 15L17 14L18 14L18 13ZM26 15L26 16L25 16L25 17L26 17L26 16L28 16L28 15ZM15 16L15 18L14 18L14 19L17 19L17 18L16 18L16 17L17 17L17 16ZM31 16L31 17L32 17L32 16ZM2 17L2 20L4 20L4 21L5 21L5 20L4 20L4 19L3 19L3 18L4 18L4 17ZM12 18L12 19L13 19L13 18ZM26 19L26 20L25 20L25 22L26 22L26 23L27 23L27 21L26 21L26 20L28 20L28 19ZM14 20L14 21L13 21L13 22L11 22L11 23L12 23L12 24L13 24L13 25L14 25L14 27L15 27L15 26L16 26L16 25L15 25L15 24L14 24L14 23L15 23L15 22L14 22L14 21L15 21L15 20ZM17 21L17 24L18 24L18 25L19 25L19 26L21 26L21 25L20 25L20 22L19 22L19 24L18 24L18 21ZM8 22L8 23L10 23L10 22ZM13 22L13 23L14 23L14 22ZM21 23L21 24L22 24L22 23ZM25 25L25 28L28 28L28 25ZM12 26L12 27L13 27L13 26ZM26 26L26 27L27 27L27 26ZM20 27L20 28L21 28L21 27ZM23 29L23 30L25 30L25 29ZM11 30L11 31L12 31L12 30ZM25 31L25 32L26 32L26 31ZM30 32L30 33L31 33L31 32ZM0 0L0 7L7 7L7 0ZM1 1L1 6L6 6L6 1ZM2 2L2 5L5 5L5 2ZM26 0L26 7L33 7L33 0ZM27 1L27 6L32 6L32 1ZM28 2L28 5L31 5L31 2ZM0 26L0 33L7 33L7 26ZM1 27L1 32L6 32L6 27ZM2 28L2 31L5 31L5 28Z" fill="#000000"/></g></g></svg>
